<svg xmlns="http://www.w3.org/2000/svg" viewBox="0 0 32 32" width="32" height="32" shape-rendering="crispEdges">
  <rect width="32" height="32" rx="7" fill="#0b0807"/>
  <g fill="#e8590c">
    <rect x="9" y="6" width="2" height="2"/><rect x="21" y="6" width="2" height="2"/>
    <rect x="9" y="8" width="2" height="2"/><rect x="21" y="8" width="2" height="2"/>
    <rect x="10" y="12" width="12" height="2" fill="#ff922b"/>
    <rect x="8" y="14" width="16" height="2"/>
    <rect x="7" y="16" width="18" height="3"/>
    <rect x="9" y="19" width="14" height="2"/>
    <rect x="4" y="15" width="3" height="2"/><rect x="25" y="15" width="3" height="2"/>
    <rect x="10" y="21" width="2" height="2"/><rect x="15" y="21" width="2" height="2"/><rect x="20" y="21" width="2" height="2"/>
  </g>
  <rect x="10" y="9" width="1" height="1" fill="#1c1210"/><rect x="21" y="9" width="1" height="1" fill="#1c1210"/>
</svg>
